<svg 
 xmlns="http://www.w3.org/2000/svg"
 xmlns:xlink="http://www.w3.org/1999/xlink"
 width="25px" height="22px">
<path fill-rule="evenodd"  opacity="0.502" fill="rgb(69, 65, 62)"
 d="M18.294,0.000 C16.727,0.000 15.202,0.581 14.001,1.637 C13.238,2.308 12.803,2.582 12.500,2.582 C12.198,2.582 11.763,2.308 10.998,1.637 C9.798,0.581 8.273,0.000 6.705,0.000 C3.008,0.000 0.001,3.160 0.001,7.045 C0.001,9.241 0.993,10.902 1.877,12.131 L7.882,19.818 C8.964,21.202 10.497,21.998 12.089,21.998 C13.615,21.998 15.058,21.294 16.153,20.018 L22.910,12.136 C23.883,10.906 24.999,9.216 24.999,7.045 C24.999,3.160 21.991,0.000 18.294,0.000 ZM21.685,11.021 L14.949,18.878 C14.165,19.792 13.150,20.295 12.090,20.295 C10.969,20.295 9.919,19.741 9.135,18.738 L3.150,11.078 C2.438,10.088 1.621,8.735 1.621,7.045 C1.621,4.100 3.902,1.703 6.705,1.703 C7.893,1.703 9.048,2.143 9.958,2.943 C10.925,3.793 11.652,4.285 12.500,4.285 C13.349,4.285 14.075,3.793 15.042,2.943 C15.952,2.144 17.106,1.703 18.294,1.703 C21.098,1.703 23.378,4.100 23.378,7.045 C23.378,8.661 22.512,9.975 21.685,11.021 Z"/>
</svg>