<svg 
 xmlns="http://www.w3.org/2000/svg"
 xmlns:xlink="http://www.w3.org/1999/xlink"
 width="23px" height="23px">
<path fill-rule="evenodd"  opacity="0.502" fill="rgb(69, 65, 62)"
 d="M14.375,17.249 C12.915,17.249 11.543,16.884 10.338,16.244 L4.343,22.238 L4.344,22.240 C3.883,22.708 3.245,23.000 2.536,23.000 C1.136,23.000 -0.000,21.865 -0.000,20.463 C-0.000,19.754 0.292,19.116 0.760,18.655 L0.755,18.651 L6.753,12.656 C6.114,11.452 5.750,10.081 5.750,8.625 C5.750,3.861 9.612,-0.001 14.375,-0.001 C19.138,-0.001 23.000,3.861 23.000,8.625 C23.000,13.388 19.138,17.249 14.375,17.249 ZM1.652,19.548 L1.658,19.553 C1.419,19.786 1.268,20.106 1.268,20.463 C1.268,21.164 1.836,21.731 2.536,21.731 C2.894,21.731 3.215,21.581 3.446,21.341 L9.242,15.545 C8.560,15.037 7.956,14.434 7.449,13.750 L1.652,19.548 ZM14.375,1.438 C10.406,1.438 7.187,4.656 7.187,8.625 C7.187,12.594 10.406,15.813 14.375,15.813 C18.344,15.813 21.563,12.594 21.563,8.625 C21.563,4.656 18.344,1.438 14.375,1.438 ZM14.375,4.312 C11.993,4.312 10.063,6.243 10.063,8.625 C10.063,8.823 9.901,8.984 9.703,8.984 C9.505,8.984 9.344,8.823 9.344,8.625 C9.344,5.846 11.595,3.593 14.375,3.593 C14.573,3.593 14.734,3.754 14.734,3.953 C14.734,4.151 14.573,4.312 14.375,4.312 Z"/>
</svg>